<svg width="243" height="33" viewBox="0 0 243 33" fill="none" xmlns="http://www.w3.org/2000/svg">
<g clip-path="url(#clip0_2_8)">
<path fill-rule="evenodd" clip-rule="evenodd" d="M25.5423 5.8472C26.1157 6.35457 26.9922 6.30163 27.4996 5.72826C28.007 5.15557 27.9534 4.27901 27.3807 3.77163C24.8851 1.56888 21.66 0.348572 18.3325 0.348572C14.7114 0.348572 11.2327 1.79095 8.66556 4.34982C6.10668 6.91695 4.66431 10.3957 4.66431 14.0161C4.66431 17.6371 6.10668 21.1159 8.66556 23.683C11.2327 26.2419 14.7114 27.6843 18.3325 27.6843C21.9371 27.6843 25.4 26.2577 27.9589 23.7222C30.5184 21.1867 31.9684 17.7327 32 14.1274C32.0041 13.3623 31.3867 12.7353 30.6216 12.7291C29.8564 12.7222 29.2314 13.3382 29.2266 14.1034C29.2032 16.9799 28.0462 19.7292 26.0022 21.7498C23.9659 23.7779 21.2083 24.9109 18.3325 24.9109C15.4402 24.9109 12.6668 23.7621 10.6311 21.7174C8.58649 19.6818 7.43768 16.9084 7.43768 14.0161C7.43768 11.1244 8.58649 8.35107 10.6311 6.3147C12.6668 4.27076 15.4402 3.12195 18.3325 3.12195C20.9869 3.12195 23.5541 4.09613 25.5423 5.8472ZM28.5219 10.1578C28.7928 10.8749 29.5951 11.2372 30.3122 10.9656C31.0292 10.6948 31.3916 9.89245 31.1207 9.17538C30.9227 8.67626 30.7006 8.17713 30.4552 7.70138C30.1004 7.01938 29.261 6.7547 28.5811 7.11151C27.9011 7.46763 27.6399 8.30707 27.9987 8.98495C28.1967 9.36513 28.3714 9.76182 28.5219 10.1578ZM6.161 24.1842C6.557 23.7531 6.5295 23.0828 6.09981 22.6882C5.67012 22.2943 4.99981 22.3218 4.6045 22.7494L0.184559 27.5708C-0.295316 28.0878 -0.559316 28.7629 -0.563441 29.4642C-0.567566 30.2858 -0.215566 31.0729 0.403872 31.6085L1.12506 32.2403C1.65443 32.703 2.32956 32.9539 3.02462 32.9581C3.84618 32.9629 4.63337 32.6226 5.18681 32.0217H5.193L9.61225 27.2003C10.0082 26.7692 9.98075 26.0989 9.55106 25.7049C9.12137 25.3103 8.45175 25.3406 8.05575 25.7716L3.63581 30.5869C3.47768 30.7553 3.26593 30.8447 3.03631 30.8433C2.84931 30.8426 2.66231 30.7746 2.51793 30.6474L1.79606 30.0149C1.64 29.8808 1.55062 29.6869 1.55131 29.4759C1.55268 29.3006 1.62006 29.1314 1.73556 28.9994H1.74175L6.161 24.1842ZM24.8349 13.5369C24.8349 13.1381 25.1587 12.815 25.5574 12.815C25.9562 12.815 26.28 13.1381 26.28 13.5369V18.9564C26.28 19.9533 25.4708 20.7625 24.4739 20.7625H12.1911C11.1935 20.7625 10.3843 19.9533 10.3843 18.9564V13.5369C10.3843 13.1381 10.7081 12.815 11.1069 12.815C11.5056 12.815 11.8294 13.1381 11.8294 13.5369V18.2339C11.8294 18.832 12.3148 19.3174 12.9136 19.3174H23.7514C24.3495 19.3174 24.8349 18.832 24.8349 18.2339V13.5369ZM12.1911 9.2022H24.4739C24.6733 9.2022 24.8349 9.36376 24.8349 9.56313V9.91032C24.8349 10.1097 24.7125 10.3771 24.5619 10.5078L19.1513 15.1972C18.6996 15.5891 17.9654 15.5891 17.513 15.1972L12.1024 10.5078C11.9518 10.3771 11.8294 10.1097 11.8294 9.91032V9.56313C11.8294 9.36376 11.9917 9.2022 12.1911 9.2022ZM11.1069 7.75707H25.5574C25.9562 7.75707 26.28 8.08088 26.28 8.47963V10.3001C26.28 10.6989 26.0318 11.2303 25.7259 11.4861L19.7178 16.511C18.9533 17.1511 17.7117 17.1511 16.9465 16.511L10.9384 11.4861C10.6325 11.2303 10.3843 10.6989 10.3843 10.3001V8.47963C10.3843 8.08088 10.7081 7.75707 11.1069 7.75707Z" fill="white"/>
</g>
<path d="M55.4775 13.7688H52.2664C52.2077 13.3534 52.088 12.9844 51.9071 12.6618C51.7263 12.3343 51.4941 12.0557 51.2107 11.826C50.9272 11.5963 50.5997 11.4203 50.2282 11.2981C49.8617 11.176 49.4633 11.1149 49.0332 11.1149C48.2561 11.1149 47.5792 11.3079 47.0024 11.694C46.4257 12.0753 45.9785 12.6325 45.6608 13.3656C45.3431 14.0938 45.1843 14.9785 45.1843 16.0196C45.1843 17.0899 45.3431 17.9893 45.6608 18.7175C45.9834 19.4458 46.433 19.9956 47.0098 20.3671C47.5865 20.7385 48.2537 20.9242 49.0112 20.9242C49.4365 20.9242 49.8299 20.868 50.1916 20.7556C50.5582 20.6432 50.8832 20.4795 51.1667 20.2644C51.4501 20.0445 51.6847 19.7781 51.8705 19.4653C52.0611 19.1525 52.1931 18.7957 52.2664 18.3949L55.4775 18.4096C55.3944 19.0987 55.1867 19.7634 54.8543 20.4037C54.5269 21.0391 54.0846 21.6085 53.5274 22.1119C52.9751 22.6105 52.3152 23.0064 51.5479 23.2996C50.7854 23.588 49.9228 23.7322 48.9599 23.7322C47.6207 23.7322 46.4233 23.4291 45.3675 22.8231C44.3167 22.217 43.4858 21.3397 42.8749 20.1911C42.2688 19.0425 41.9658 17.652 41.9658 16.0196C41.9658 14.3822 42.2737 12.9893 42.8895 11.8407C43.5054 10.6921 44.3412 9.81721 45.3969 9.21604C46.4526 8.60998 47.6403 8.30694 48.9599 8.30694C49.8299 8.30694 50.6364 8.42913 51.3793 8.67351C52.1271 8.91789 52.7893 9.27469 53.3661 9.74389C53.9428 10.2082 54.412 10.7776 54.7737 11.4521C55.1403 12.1266 55.3749 12.8988 55.4775 13.7688ZM57.6953 23.5269V12.2659H60.8184V23.5269H57.6953ZM59.2642 10.8143C58.7998 10.8143 58.4015 10.6603 58.0692 10.3524C57.7417 10.0396 57.578 9.66569 57.578 9.2307C57.578 8.80059 57.7417 8.43158 58.0692 8.12366C58.4015 7.81085 58.7998 7.65445 59.2642 7.65445C59.7285 7.65445 60.1244 7.81085 60.4519 8.12366C60.7842 8.43158 60.9504 8.80059 60.9504 9.2307C60.9504 9.66569 60.7842 10.0396 60.4519 10.3524C60.1244 10.6603 59.7285 10.8143 59.2642 10.8143ZM72.6898 15.477L69.8305 15.653C69.7816 15.4086 69.6766 15.1887 69.5153 14.9932C69.354 14.7928 69.1414 14.6339 68.8774 14.5166C68.6184 14.3944 68.308 14.3333 67.9464 14.3333C67.4625 14.3333 67.0544 14.436 66.722 14.6413C66.3897 14.8416 66.2235 15.1105 66.2235 15.4477C66.2235 15.7165 66.331 15.9438 66.5461 16.1295C66.7611 16.3153 67.1301 16.4643 67.6531 16.5767L69.6912 16.9873C70.786 17.2121 71.6023 17.5738 72.1399 18.0723C72.6775 18.5709 72.9464 19.2258 72.9464 20.0371C72.9464 20.7752 72.7289 21.4228 72.2939 21.98C71.8638 22.5371 71.2724 22.9721 70.5197 23.285C69.7719 23.5929 68.9092 23.7468 67.9317 23.7468C66.441 23.7468 65.2533 23.4365 64.3686 22.8157C63.4889 22.1901 62.9732 21.3397 62.8217 20.2644L65.8936 20.1031C65.9864 20.5577 66.2113 20.9047 66.5681 21.1442C66.9248 21.3788 67.3818 21.4961 67.939 21.4961C68.4864 21.4961 68.9263 21.391 69.2587 21.1808C69.5959 20.9658 69.767 20.6896 69.7719 20.3524C69.767 20.0689 69.6472 19.8368 69.4126 19.6559C69.178 19.4702 68.8163 19.3284 68.3276 19.2307L66.3774 18.8421C65.2777 18.6222 64.4591 18.241 63.9214 17.6984C63.3887 17.1559 63.1223 16.4643 63.1223 15.6237C63.1223 14.9003 63.3178 14.2771 63.7088 13.7542C64.1047 13.2312 64.6595 12.828 65.373 12.5445C66.0915 12.261 66.9322 12.1193 67.895 12.1193C69.3173 12.1193 70.4366 12.4198 71.2528 13.021C72.0739 13.6222 72.5529 14.4409 72.6898 15.477ZM80.001 23.7468C78.8475 23.7468 77.8553 23.5024 77.0244 23.0137C76.1984 22.52 75.563 21.8358 75.1183 20.9609C74.6784 20.086 74.4585 19.0792 74.4585 17.9404C74.4585 16.7869 74.6808 15.7752 75.1256 14.9052C75.5753 14.0303 76.2131 13.3485 77.0391 12.8597C77.8651 12.3661 78.8475 12.1193 79.9863 12.1193C80.9687 12.1193 81.8289 12.2977 82.567 12.6545C83.305 13.0112 83.889 13.5122 84.3192 14.1574C84.7493 14.8025 84.9863 15.5601 85.0303 16.4301H82.0831C82 15.868 81.7801 15.4159 81.4233 15.0738C81.0714 14.7268 80.6095 14.5533 80.0376 14.5533C79.5538 14.5533 79.131 14.6852 78.7693 14.9492C78.4125 15.2082 78.1339 15.587 77.9335 16.0855C77.7331 16.5841 77.6329 17.1877 77.6329 17.8964C77.6329 18.6149 77.7307 19.2258 77.9262 19.7292C78.1266 20.2327 78.4076 20.6163 78.7693 20.8803C79.131 21.1442 79.5538 21.2762 80.0376 21.2762C80.3944 21.2762 80.7146 21.2028 80.998 21.0562C81.2864 20.9096 81.5235 20.697 81.7092 20.4184C81.8998 20.1349 82.0244 19.7952 82.0831 19.3993H85.0303C84.9814 20.2595 84.7468 21.0171 84.3265 21.672C83.911 22.3221 83.3368 22.8304 82.6036 23.197C81.8705 23.5635 81.0029 23.7468 80.001 23.7468ZM92.1179 23.7468C90.9791 23.7468 89.9943 23.5049 89.1634 23.021C88.3374 22.5323 87.6995 21.8529 87.2499 20.9829C86.8002 20.108 86.5754 19.0938 86.5754 17.9404C86.5754 16.7771 86.8002 15.7605 87.2499 14.8905C87.6995 14.0156 88.3374 13.3363 89.1634 12.8524C89.9943 12.3636 90.9791 12.1193 92.1179 12.1193C93.2567 12.1193 94.2391 12.3636 95.0651 12.8524C95.896 13.3363 96.5363 14.0156 96.9859 14.8905C97.4356 15.7605 97.6604 16.7771 97.6604 17.9404C97.6604 19.0938 97.4356 20.108 96.9859 20.9829C96.5363 21.8529 95.896 22.5323 95.0651 23.021C94.2391 23.5049 93.2567 23.7468 92.1179 23.7468ZM92.1326 21.3275C92.6507 21.3275 93.0832 21.1808 93.4302 20.8876C93.7772 20.5894 94.0387 20.1838 94.2147 19.6706C94.3955 19.1574 94.4859 18.5733 94.4859 17.9184C94.4859 17.2634 94.3955 16.6794 94.2147 16.1662C94.0387 15.653 93.7772 15.2473 93.4302 14.9492C93.0832 14.651 92.6507 14.502 92.1326 14.502C91.6096 14.502 91.1697 14.651 90.8129 14.9492C90.461 15.2473 90.1946 15.653 90.0138 16.1662C89.8379 16.6794 89.7499 17.2634 89.7499 17.9184C89.7499 18.5733 89.8379 19.1574 90.0138 19.6706C90.1946 20.1838 90.461 20.5894 90.8129 20.8876C91.1697 21.1808 91.6096 21.3275 92.1326 21.3275ZM104.528 23.5269V8.51222H110.452C111.591 8.51222 112.561 8.72972 113.362 9.16472C114.164 9.59482 114.775 10.1936 115.195 10.9609C115.62 11.7234 115.833 12.6031 115.833 13.6002C115.833 14.5973 115.618 15.477 115.188 16.2395C114.758 17.002 114.135 17.5958 113.318 18.021C112.507 18.4462 111.525 18.6589 110.371 18.6589H106.596V16.1149H109.858C110.469 16.1149 110.972 16.0098 111.368 15.7996C111.769 15.5846 112.067 15.2889 112.263 14.9125C112.463 14.5313 112.563 14.0938 112.563 13.6002C112.563 13.1017 112.463 12.6667 112.263 12.2952C112.067 11.9189 111.769 11.6281 111.368 11.4228C110.967 11.2126 110.459 11.1075 109.843 11.1075H107.703V23.5269H104.528ZM120.745 23.7395C120.027 23.7395 119.386 23.6149 118.824 23.3656C118.262 23.1114 117.817 22.7375 117.49 22.2439C117.167 21.7454 117.006 21.1246 117.006 20.3817C117.006 19.7561 117.121 19.2307 117.351 18.8055C117.58 18.3803 117.893 18.0381 118.289 17.7791C118.685 17.52 119.135 17.3245 119.638 17.1926C120.146 17.0606 120.679 16.9677 121.236 16.914C121.891 16.8456 122.419 16.782 122.82 16.7234C123.221 16.6598 123.511 16.567 123.692 16.4448C123.873 16.3226 123.964 16.1417 123.964 15.9023V15.8583C123.964 15.3939 123.817 15.0347 123.524 14.7806C123.235 14.5264 122.825 14.3993 122.292 14.3993C121.73 14.3993 121.283 14.524 120.95 14.7732C120.618 15.0176 120.398 15.3255 120.291 15.697L117.402 15.4624C117.549 14.7781 117.837 14.1867 118.267 13.6882C118.697 13.1848 119.252 12.7986 119.931 12.5298C120.616 12.2561 121.407 12.1193 122.307 12.1193C122.932 12.1193 123.531 12.1926 124.103 12.3392C124.68 12.4858 125.19 12.7131 125.635 13.021C126.085 13.3289 126.439 13.7248 126.698 14.2087C126.957 14.6877 127.087 15.262 127.087 15.9316V23.5269H124.125V21.9653H124.037C123.856 22.3172 123.614 22.6276 123.311 22.8964C123.008 23.1603 122.644 23.368 122.219 23.5196C121.793 23.6662 121.302 23.7395 120.745 23.7395ZM121.64 21.5841C122.099 21.5841 122.505 21.4937 122.857 21.3128C123.208 21.1271 123.485 20.8778 123.685 20.565C123.885 20.2522 123.986 19.8979 123.986 19.502V18.3069C123.888 18.3705 123.753 18.4291 123.582 18.4829C123.416 18.5318 123.228 18.5782 123.018 18.6222C122.808 18.6613 122.598 18.698 122.387 18.7322C122.177 18.7615 121.987 18.7884 121.815 18.8128C121.449 18.8666 121.129 18.9521 120.855 19.0694C120.581 19.1867 120.369 19.3456 120.217 19.5459C120.066 19.7415 119.99 19.9858 119.99 20.2791C119.99 20.7043 120.144 21.0293 120.452 21.2542C120.765 21.4741 121.161 21.5841 121.64 21.5841ZM134.598 23.7468C133.444 23.7468 132.452 23.5024 131.621 23.0137C130.795 22.52 130.16 21.8358 129.715 20.9609C129.275 20.086 129.055 19.0792 129.055 17.9404C129.055 16.7869 129.278 15.7752 129.722 14.9052C130.172 14.0303 130.81 13.3485 131.636 12.8597C132.462 12.3661 133.444 12.1193 134.583 12.1193C135.565 12.1193 136.426 12.2977 137.164 12.6545C137.902 13.0112 138.486 13.5122 138.916 14.1574C139.346 14.8025 139.583 15.5601 139.627 16.4301H136.68C136.597 15.868 136.377 15.4159 136.02 15.0738C135.668 14.7268 135.206 14.5533 134.634 14.5533C134.151 14.5533 133.728 14.6852 133.366 14.9492C133.009 15.2082 132.731 15.587 132.53 16.0855C132.33 16.5841 132.23 17.1877 132.23 17.8964C132.23 18.6149 132.327 19.2258 132.523 19.7292C132.723 20.2327 133.004 20.6163 133.366 20.8803C133.728 21.1442 134.151 21.2762 134.634 21.2762C134.991 21.2762 135.311 21.2028 135.595 21.0562C135.883 20.9096 136.12 20.697 136.306 20.4184C136.497 20.1349 136.621 19.7952 136.68 19.3993H139.627C139.578 20.2595 139.344 21.0171 138.923 21.672C138.508 22.3221 137.934 22.8304 137.2 23.197C136.467 23.5635 135.6 23.7468 134.598 23.7468ZM144.457 20.2864L144.464 16.5401H144.918L148.526 12.2659H152.111L147.265 17.9257H146.524L144.457 20.2864ZM141.627 23.5269V8.51222H144.75V23.5269H141.627ZM148.665 23.5269L145.351 18.6222L147.433 16.4154L152.323 23.5269H148.665ZM158.311 23.7468C157.153 23.7468 156.156 23.5122 155.32 23.043C154.489 22.5689 153.849 21.8993 153.399 21.0342C152.949 20.1642 152.725 19.1354 152.725 17.9477C152.725 16.7893 152.949 15.7727 153.399 14.8979C153.849 14.023 154.482 13.3412 155.298 12.8524C156.119 12.3636 157.082 12.1193 158.186 12.1193C158.929 12.1193 159.621 12.239 160.261 12.4785C160.906 12.7131 161.468 13.0675 161.947 13.5415C162.431 14.0156 162.808 14.6119 163.076 15.3304C163.345 16.044 163.48 16.8798 163.48 17.8377V18.6955H153.971V16.76H160.54C160.54 16.3104 160.442 15.912 160.247 15.565C160.051 15.218 159.78 14.9467 159.433 14.7512C159.091 14.5508 158.692 14.4506 158.238 14.4506C157.764 14.4506 157.343 14.5606 156.977 14.7806C156.615 14.9956 156.332 15.2864 156.126 15.653C155.921 16.0147 155.816 16.4179 155.811 16.8627V18.7028C155.811 19.26 155.914 19.7415 156.119 20.1471C156.329 20.5528 156.625 20.8656 157.006 21.0855C157.387 21.3055 157.839 21.4154 158.362 21.4154C158.709 21.4154 159.027 21.3666 159.315 21.2688C159.604 21.1711 159.851 21.0244 160.056 20.8289C160.261 20.6334 160.418 20.3939 160.525 20.1105L163.414 20.3011C163.267 20.9951 162.967 21.6012 162.512 22.1193C162.062 22.6325 161.481 23.0332 160.767 23.3216C160.058 23.6051 159.24 23.7468 158.311 23.7468ZM171.508 12.2659V14.6119H164.726V12.2659H171.508ZM166.266 9.56794H169.389V20.0665C169.389 20.3548 169.433 20.5797 169.521 20.741C169.609 20.8974 169.731 21.0073 169.887 21.0709C170.049 21.1344 170.234 21.1662 170.445 21.1662C170.591 21.1662 170.738 21.154 170.884 21.1295C171.031 21.1002 171.143 21.0782 171.222 21.0635L171.713 23.3876C171.556 23.4365 171.337 23.4927 171.053 23.5562C170.77 23.6246 170.425 23.6662 170.019 23.6808C169.267 23.7102 168.607 23.61 168.04 23.3803C167.478 23.1505 167.04 22.7937 166.728 22.3099C166.415 21.826 166.261 21.2151 166.266 20.477V9.56794ZM177.807 11.1295V8.51222H190.138V11.1295H185.542V23.5269H182.404V11.1295H177.807ZM190.941 23.5269V12.2659H193.969V14.2307H194.086C194.292 13.5318 194.636 13.0039 195.12 12.6471C195.604 12.2854 196.161 12.1046 196.792 12.1046C196.948 12.1046 197.117 12.1144 197.298 12.1339C197.478 12.1535 197.637 12.1804 197.774 12.2146V14.9858C197.627 14.9418 197.425 14.9027 197.166 14.8685C196.907 14.8343 196.669 14.8172 196.454 14.8172C195.995 14.8172 195.584 14.9174 195.223 15.1178C194.866 15.3133 194.582 15.587 194.372 15.9389C194.167 16.2908 194.064 16.6965 194.064 17.1559V23.5269H190.941ZM202.277 23.7395C201.559 23.7395 200.919 23.6149 200.357 23.3656C199.794 23.1114 199.35 22.7375 199.022 22.2439C198.7 21.7454 198.538 21.1246 198.538 20.3817C198.538 19.7561 198.653 19.2307 198.883 18.8055C199.113 18.3803 199.425 18.0381 199.821 17.7791C200.217 17.52 200.667 17.3245 201.17 17.1926C201.679 17.0606 202.211 16.9677 202.769 16.914C203.424 16.8456 203.951 16.782 204.352 16.7234C204.753 16.6598 205.044 16.567 205.225 16.4448C205.405 16.3226 205.496 16.1417 205.496 15.9023V15.8583C205.496 15.3939 205.349 15.0347 205.056 14.7806C204.768 14.5264 204.357 14.3993 203.824 14.3993C203.262 14.3993 202.815 14.524 202.483 14.7732C202.15 15.0176 201.93 15.3255 201.823 15.697L198.934 15.4624C199.081 14.7781 199.369 14.1867 199.799 13.6882C200.229 13.1848 200.784 12.7986 201.464 12.5298C202.148 12.2561 202.94 12.1193 203.839 12.1193C204.465 12.1193 205.063 12.1926 205.635 12.3392C206.212 12.4858 206.723 12.7131 207.167 13.021C207.617 13.3289 207.971 13.7248 208.23 14.2087C208.489 14.6877 208.619 15.262 208.619 15.9316V23.5269H205.657V21.9653H205.569C205.388 22.3172 205.146 22.6276 204.843 22.8964C204.54 23.1603 204.176 23.368 203.751 23.5196C203.326 23.6662 202.835 23.7395 202.277 23.7395ZM203.172 21.5841C203.631 21.5841 204.037 21.4937 204.389 21.3128C204.741 21.1271 205.017 20.8778 205.217 20.565C205.418 20.2522 205.518 19.8979 205.518 19.502V18.3069C205.42 18.3705 205.286 18.4291 205.115 18.4829C204.948 18.5318 204.76 18.5782 204.55 18.6222C204.34 18.6613 204.13 18.698 203.92 18.7322C203.709 18.7615 203.519 18.7884 203.348 18.8128C202.981 18.8666 202.661 18.9521 202.387 19.0694C202.114 19.1867 201.901 19.3456 201.75 19.5459C201.598 19.7415 201.522 19.9858 201.522 20.2791C201.522 20.7043 201.676 21.0293 201.984 21.2542C202.297 21.4741 202.693 21.5841 203.172 21.5841ZM216.13 23.7468C214.977 23.7468 213.984 23.5024 213.153 23.0137C212.327 22.52 211.692 21.8358 211.247 20.9609C210.807 20.086 210.587 19.0792 210.587 17.9404C210.587 16.7869 210.81 15.7752 211.255 14.9052C211.704 14.0303 212.342 13.3485 213.168 12.8597C213.994 12.3661 214.977 12.1193 216.115 12.1193C217.098 12.1193 217.958 12.2977 218.696 12.6545C219.434 13.0112 220.018 13.5122 220.448 14.1574C220.878 14.8025 221.115 15.5601 221.159 16.4301H218.212C218.129 15.868 217.909 15.4159 217.552 15.0738C217.2 14.7268 216.739 14.5533 216.167 14.5533C215.683 14.5533 215.26 14.6852 214.898 14.9492C214.542 15.2082 214.263 15.587 214.063 16.0855C213.862 16.5841 213.762 17.1877 213.762 17.8964C213.762 18.6149 213.86 19.2258 214.055 19.7292C214.256 20.2327 214.537 20.6163 214.898 20.8803C215.26 21.1442 215.683 21.2762 216.167 21.2762C216.523 21.2762 216.844 21.2028 217.127 21.0562C217.415 20.9096 217.652 20.697 217.838 20.4184C218.029 20.1349 218.153 19.7952 218.212 19.3993H221.159C221.11 20.2595 220.876 21.0171 220.456 21.672C220.04 22.3221 219.466 22.8304 218.733 23.197C217.999 23.5635 217.132 23.7468 216.13 23.7468ZM228.291 23.7468C227.133 23.7468 226.136 23.5122 225.3 23.043C224.469 22.5689 223.829 21.8993 223.379 21.0342C222.929 20.1642 222.704 19.1354 222.704 17.9477C222.704 16.7893 222.929 15.7727 223.379 14.8979C223.829 14.023 224.462 13.3412 225.278 12.8524C226.099 12.3636 227.062 12.1193 228.166 12.1193C228.909 12.1193 229.601 12.239 230.241 12.4785C230.886 12.7131 231.448 13.0675 231.927 13.5415C232.411 14.0156 232.788 14.6119 233.056 15.3304C233.325 16.044 233.46 16.8798 233.46 17.8377V18.6955H223.951V16.76H230.52C230.52 16.3104 230.422 15.912 230.226 15.565C230.031 15.218 229.76 14.9467 229.413 14.7512C229.07 14.5508 228.672 14.4506 228.218 14.4506C227.744 14.4506 227.323 14.5606 226.957 14.7806C226.595 14.9956 226.311 15.2864 226.106 15.653C225.901 16.0147 225.796 16.4179 225.791 16.8627V18.7028C225.791 19.26 225.894 19.7415 226.099 20.1471C226.309 20.5528 226.605 20.8656 226.986 21.0855C227.367 21.3055 227.819 21.4154 228.342 21.4154C228.689 21.4154 229.007 21.3666 229.295 21.2688C229.584 21.1711 229.831 21.0244 230.036 20.8289C230.241 20.6334 230.397 20.3939 230.505 20.1105L233.394 20.3011C233.247 20.9951 232.946 21.6012 232.492 22.1193C232.042 22.6325 231.461 23.0332 230.747 23.3216C230.038 23.6051 229.22 23.7468 228.291 23.7468ZM235.498 23.5269V12.2659H238.526V14.2307H238.643C238.848 13.5318 239.193 13.0039 239.677 12.6471C240.16 12.2854 240.718 12.1046 241.348 12.1046C241.505 12.1046 241.673 12.1144 241.854 12.1339C242.035 12.1535 242.194 12.1804 242.331 12.2146V14.9858C242.184 14.9418 241.981 14.9027 241.722 14.8685C241.463 14.8343 241.226 14.8172 241.011 14.8172C240.551 14.8172 240.141 14.9174 239.779 15.1178C239.422 15.3133 239.139 15.587 238.929 15.9389C238.723 16.2908 238.621 16.6965 238.621 17.1559V23.5269H235.498Z" fill="white"/>
<defs>
<clipPath id="clip0_2_8">
<rect width="33" height="33" fill="white"/>
</clipPath>
</defs>
</svg>
